<?xml version="1.0" standalone="no"?>
<!DOCTYPE svg PUBLIC "-//W3C//DTD SVG 20010904//EN"
 "http://www.w3.org/TR/2001/REC-SVG-20010904/DTD/svg10.dtd">
<svg version="1.0" xmlns="http://www.w3.org/2000/svg"
 width="200.000000pt" height="200.000000pt" viewBox="0 0 160.000000 160.000000"
 preserveAspectRatio="xMidYMid meet">
<metadata>
Created by potrace 1.16, written by Peter Selinger 2001-2019
</metadata>
<g transform="translate(0.000000,160.000000) scale(0.023774,-0.023810)"
fill="currentColor" stroke="none">
<path d="M2555 5681 c-65 -17 -161 -78 -230 -146 -73 -73 -167 -192 -205 -260
-12 -22 -39 -69 -60 -105 -21 -36 -66 -123 -100 -195 -34 -71 -100 -186 -146
-255 -119 -181 -257 -440 -306 -576 -26 -75 -23 -74 -143 -32 -38 14 -99 33
-135 43 -36 9 -81 21 -100 26 -19 5 -70 11 -114 12 -64 2 -80 -1 -89 -15 -19
-29 17 -58 71 -58 25 0 61 -4 81 -9 20 -5 68 -17 106 -26 92 -22 237 -73 252
-88 10 -10 8 -26 -8 -77 -53 -171 -76 -338 -78 -566 -2 -188 4 -253 34 -399 8
-36 5 -38 -130 -83 -49 -16 -104 -36 -122 -43 -18 -7 -36 -10 -40 -5 -14 13
-9 493 5 581 21 127 55 287 72 335 29 84 51 171 45 180 -3 5 -15 15 -25 20
-27 15 -55 -15 -75 -82 -109 -352 -142 -663 -109 -1024 6 -66 5 -73 -14 -83
-75 -40 -67 -115 10 -96 19 5 27 1 36 -19 12 -28 40 -34 60 -14 7 7 12 31 12
55 0 42 1 43 53 66 28 13 77 32 107 42 30 10 72 24 93 31 20 8 42 14 47 14 6
0 28 -37 49 -83 63 -135 127 -225 236 -333 108 -107 215 -184 353 -255 81 -41
106 -64 86 -78 -21 -14 -88 -118 -129 -199 -129 -256 -138 -478 -27 -712 30
-65 105 -163 156 -206 l37 -30 3 -129 c2 -72 7 -165 11 -207 l8 -78 41 0 42 0
-7 72 c-12 112 -10 256 2 263 5 4 18 0 28 -9 10 -9 23 -16 29 -16 6 0 27 -9
46 -19 135 -76 419 -91 651 -36 79 19 235 73 252 87 9 8 32 2 85 -20 81 -34
254 -86 338 -103 30 -6 74 -15 97 -20 23 -5 97 -9 165 -9 129 0 238 18 349 58
31 11 62 16 69 12 8 -5 13 -47 16 -126 2 -66 4 -122 4 -126 0 -5 17 -8 38 -8
l37 0 -3 163 -3 162 37 20 c48 26 126 112 153 170 54 114 56 129 55 330 -1
173 -3 199 -28 290 -44 164 -109 316 -168 394 -20 27 -24 51 -6 51 30 0 283
137 360 195 151 115 306 299 372 441 19 43 28 47 73 30 21 -7 57 -19 81 -27
67 -20 73 -28 76 -95 4 -74 9 -84 47 -84 28 0 37 16 30 54 -4 19 11 46 25 46
14 0 67 -27 121 -60 23 -15 51 -8 60 15 12 32 -15 60 -101 104 -60 31 -88 51
-92 66 -9 36 21 365 46 510 31 174 42 233 49 260 18 62 33 152 29 176 -2 18
-10 25 -33 27 -38 4 -43 -9 -79 -183 -36 -170 -42 -207 -60 -350 -31 -242 -36
-291 -36 -351 0 -33 -2 -63 -5 -66 -3 -3 -41 7 -86 21 l-80 26 4 40 c3 22 14
94 27 160 19 105 21 143 16 305 -3 102 -12 226 -20 275 -9 50 -19 113 -22 141
l-6 51 68 17 c145 37 222 50 389 66 61 6 120 13 131 16 27 5 37 29 24 55 -9
16 -22 19 -73 19 -100 0 -371 -40 -497 -74 -63 -16 -75 -11 -86 37 -7 36 -69
231 -83 262 -5 11 -17 40 -26 65 -10 25 -26 64 -36 87 -11 24 -19 45 -19 47 0
3 -18 43 -40 90 -29 65 -43 111 -55 192 -34 228 -80 423 -134 564 -65 170
-149 285 -243 334 -46 24 -64 27 -143 27 -132 -1 -207 -32 -334 -140 -66 -56
-169 -180 -236 -285 l-50 -77 -65 5 c-36 2 -119 10 -185 16 -66 6 -217 10
-335 9 -118 -1 -220 -1 -227 0 -6 0 -15 22 -18 49 -6 39 -24 114 -53 217 -12
45 -75 156 -106 187 -68 69 -71 70 -185 74 -58 2 -120 0 -136 -5z m189 -90
c52 -13 91 -53 131 -136 34 -72 90 -279 80 -296 -4 -5 -25 -12 -47 -15 -38 -7
-78 -33 -78 -52 0 -5 6 -16 13 -25 11 -14 24 -15 132 -4 237 24 631 12 830
-23 28 -5 61 -12 75 -14 14 -2 46 -9 72 -15 51 -12 73 -8 82 15 9 22 -10 52
-44 69 -36 19 -36 18 48 131 147 198 292 307 427 321 113 12 207 -56 279 -203
54 -110 63 -133 103 -284 27 -102 29 -110 66 -335 22 -136 29 -161 79 -265 30
-63 65 -142 77 -175 31 -81 52 -136 61 -160 20 -48 59 -183 62 -209 3 -33 -1
-36 -117 -83 -118 -47 -180 -85 -183 -114 -2 -18 3 -28 20 -36 19 -8 38 -3
108 31 121 59 189 81 202 68 13 -13 23 -70 44 -247 21 -176 13 -346 -24 -545
-6 -30 -15 -68 -21 -83 -11 -29 -12 -29 -74 -22 -34 4 -66 10 -71 13 -28 17
34 432 79 522 39 79 39 79 20 100 -21 23 -48 26 -62 8 -48 -63 -106 -291 -117
-463 -10 -146 -14 -160 -47 -172 -34 -13 -46 -37 -29 -57 14 -18 39 -23 153
-31 60 -5 90 -11 94 -20 5 -16 -51 -113 -113 -195 -138 -181 -368 -341 -614
-430 -19 -6 -44 -16 -55 -20 -19 -8 -189 -52 -250 -65 -105 -23 -272 -45 -340
-45 -86 -1 -115 -13 -115 -47 0 -37 24 -46 103 -39 271 25 350 39 592 106 35
9 47 -5 123 -140 79 -141 133 -345 139 -532 5 -145 -5 -197 -59 -315 -25 -53
-111 -127 -198 -170 -172 -84 -190 -88 -415 -88 -137 0 -214 4 -245 13 -78 23
-213 64 -259 79 -85 27 -291 147 -353 205 -7 7 -33 29 -58 49 -25 20 -83 75
-130 123 -52 53 -93 86 -106 86 -29 0 -95 34 -120 62 -31 33 -64 90 -64 110 0
17 56 53 110 71 139 47 336 49 495 6 101 -28 234 -86 343 -150 45 -27 85 -49
89 -49 4 0 14 -6 22 -14 22 -18 188 -102 230 -115 50 -16 86 -13 137 10 55 26
95 65 119 115 34 72 8 189 -58 263 -43 47 -139 110 -191 125 -112 33 -263 14
-357 -44 -27 -16 -52 -30 -55 -30 -3 0 -28 -18 -55 -39 l-49 -39 -54 18 c-142
50 -201 60 -362 60 -166 0 -229 -10 -328 -54 -32 -14 -64 -22 -80 -19 -14 3
-33 -1 -42 -8 -41 -34 20 -215 94 -280 18 -16 66 -45 105 -63 54 -26 89 -52
141 -105 63 -66 240 -215 282 -239 31 -17 7 -37 -77 -64 -120 -39 -241 -58
-356 -58 -93 0 -229 19 -278 39 -54 22 -140 66 -143 73 -2 4 -9 8 -15 8 -7 0
-40 24 -73 53 -108 91 -158 161 -198 279 -22 64 -26 93 -27 204 -1 81 3 145
11 170 34 108 44 133 67 184 27 59 112 187 143 215 18 16 24 16 117 -13 135
-41 199 -59 263 -72 30 -6 74 -15 98 -21 86 -19 122 -8 122 38 0 28 -27 43
-76 43 -20 0 -53 4 -73 9 -20 5 -67 17 -106 26 -69 16 -221 60 -260 75 -107
42 -141 57 -215 93 -47 22 -87 43 -90 46 -3 4 -39 29 -80 56 -92 62 -233 200
-287 280 -34 51 -71 117 -105 187 -15 33 -9 45 30 52 76 12 131 7 149 -14 21
-24 56 -26 74 -4 7 8 25 22 41 30 19 10 28 22 28 39 0 20 -7 26 -39 35 -37 10
-40 13 -48 58 -13 82 -9 519 6 602 16 89 40 180 48 180 3 0 18 -9 34 -21 37
-26 73 -22 77 10 3 17 -6 33 -35 57 -21 19 -41 34 -45 34 -5 0 -8 15 -8 33 0
53 -31 77 -68 51 -22 -15 -12 -19 -157 62 -22 12 -41 31 -43 41 -4 30 95 251
188 418 36 64 123 202 181 287 21 31 39 62 39 68 0 24 142 304 203 399 33 53
81 121 107 151 26 30 55 66 66 78 36 44 151 119 224 145 24 9 122 7 164 -2z
m-1128 -1676 c36 -20 77 -43 91 -52 27 -18 27 -11 2 -133 -5 -25 -13 -74 -19
-110 -6 -36 -13 -78 -16 -95 -14 -76 -15 -364 -1 -465 8 -58 12 -108 8 -112
-8 -9 -185 -13 -199 -5 -20 13 -50 243 -50 382 1 232 25 394 93 613 6 19 20
15 91 -23z m2299 -2205 c3 -5 13 -10 21 -10 21 0 109 -66 130 -98 36 -53 44
-75 44 -121 0 -52 -17 -74 -77 -105 -45 -23 -91 -20 -151 9 -29 14 -54 25 -57
25 -2 0 -53 31 -112 68 -59 37 -127 77 -150 88 -68 31 -64 52 17 99 93 52 102
54 217 55 64 0 114 -4 118 -10z"/>
<path d="M2853 4558 c-17 -22 -24 -49 -40 -143 -32 -199 -51 -399 -59 -631
l-6 -172 26 -17 c30 -20 71 -14 84 13 5 9 12 87 16 172 9 222 31 455 56 600
28 166 24 190 -34 190 -19 0 -38 -6 -43 -12z"/>
<path d="M3643 4518 c-16 -21 -20 -39 -42 -169 -37 -232 -58 -445 -60 -611 -2
-134 7 -158 60 -158 43 0 59 24 59 88 0 173 34 484 88 795 6 38 -22 67 -63 67
-18 0 -37 -6 -42 -12z"/>
<path d="M1881 3679 c-34 -56 -52 -187 -53 -382 0 -163 2 -182 18 -194 23 -17
29 -16 48 2 12 12 15 45 14 167 0 147 12 264 33 319 17 44 14 88 -7 104 -27
20 -32 19 -53 -16z"/>
<path d="M2738 3418 c-25 -21 -41 -244 -28 -403 20 -240 71 -366 194 -483 81
-77 170 -112 286 -112 205 0 342 113 418 345 39 118 63 338 57 514 -5 125 -13
151 -45 151 -25 0 -38 -20 -42 -65 l-3 -40 -65 -14 c-92 -19 -529 -19 -630 1
l-75 14 -3 40 c-3 34 -22 64 -42 64 -3 0 -13 -6 -22 -12z m457 -201 c138 -1
280 3 318 8 l67 8 0 -80 c0 -230 -72 -469 -169 -561 -73 -69 -119 -85 -227
-79 -118 7 -178 32 -242 102 -101 111 -152 281 -152 504 l0 114 78 -8 c42 -5
190 -8 327 -8z"/>
</g>
</svg>
